<mxfile host="app.diagrams.net" agent="Mozilla/5.0 (Windows NT 10.0; Win64; x64) AppleWebKit/537.36 (KHTML, like Gecko) Chrome/129.0.0.0 Safari/537.36" version="24.7.17">
  <diagram id="C5RBs43oDa-KdzZeNtuy" name="Page-1">
    <mxGraphModel dx="3330" dy="1235" grid="1" gridSize="10" guides="1" tooltips="1" connect="1" arrows="1" fold="1" page="1" pageScale="1" pageWidth="827" pageHeight="1169" math="0" shadow="0">
      <root>
        <mxCell id="WIyWlLk6GJQsqaUBKTNV-0" />
        <mxCell id="WIyWlLk6GJQsqaUBKTNV-1" parent="WIyWlLk6GJQsqaUBKTNV-0" />
        <mxCell id="UqoAKlA2ank79z2y8RN3-2" style="edgeStyle=orthogonalEdgeStyle;rounded=0;orthogonalLoop=1;jettySize=auto;html=1;entryX=0.5;entryY=0;entryDx=0;entryDy=0;" edge="1" parent="WIyWlLk6GJQsqaUBKTNV-1" source="UqoAKlA2ank79z2y8RN3-0" target="UqoAKlA2ank79z2y8RN3-1">
          <mxGeometry relative="1" as="geometry" />
        </mxCell>
        <mxCell id="UqoAKlA2ank79z2y8RN3-0" value="Start" style="ellipse;whiteSpace=wrap;html=1;" vertex="1" parent="WIyWlLk6GJQsqaUBKTNV-1">
          <mxGeometry x="310" y="30" width="120" height="80" as="geometry" />
        </mxCell>
        <mxCell id="UqoAKlA2ank79z2y8RN3-4" style="edgeStyle=orthogonalEdgeStyle;rounded=0;orthogonalLoop=1;jettySize=auto;html=1;entryX=0.5;entryY=0;entryDx=0;entryDy=0;" edge="1" parent="WIyWlLk6GJQsqaUBKTNV-1" source="UqoAKlA2ank79z2y8RN3-1" target="UqoAKlA2ank79z2y8RN3-3">
          <mxGeometry relative="1" as="geometry" />
        </mxCell>
        <mxCell id="UqoAKlA2ank79z2y8RN3-1" value="Username string&lt;div&gt;Password string&lt;/div&gt;&lt;div&gt;Menu int&lt;/div&gt;&lt;div&gt;Informasi Pengguna string struck&lt;/div&gt;&lt;div&gt;Boneka string struck&lt;/div&gt;&lt;div&gt;Histori array string&lt;/div&gt;&lt;div&gt;&lt;br&gt;&lt;/div&gt;" style="shape=hexagon;perimeter=hexagonPerimeter2;whiteSpace=wrap;html=1;fixedSize=1;" vertex="1" parent="WIyWlLk6GJQsqaUBKTNV-1">
          <mxGeometry x="275" y="170" width="190" height="160" as="geometry" />
        </mxCell>
        <mxCell id="UqoAKlA2ank79z2y8RN3-6" value="no" style="edgeStyle=orthogonalEdgeStyle;rounded=0;orthogonalLoop=1;jettySize=auto;html=1;entryX=0.5;entryY=0;entryDx=0;entryDy=0;" edge="1" parent="WIyWlLk6GJQsqaUBKTNV-1" source="UqoAKlA2ank79z2y8RN3-3" target="UqoAKlA2ank79z2y8RN3-5">
          <mxGeometry relative="1" as="geometry" />
        </mxCell>
        <mxCell id="UqoAKlA2ank79z2y8RN3-8" value="yes" style="edgeStyle=orthogonalEdgeStyle;rounded=0;orthogonalLoop=1;jettySize=auto;html=1;entryX=0;entryY=0.5;entryDx=0;entryDy=0;" edge="1" parent="WIyWlLk6GJQsqaUBKTNV-1" source="UqoAKlA2ank79z2y8RN3-3" target="UqoAKlA2ank79z2y8RN3-7">
          <mxGeometry relative="1" as="geometry" />
        </mxCell>
        <mxCell id="UqoAKlA2ank79z2y8RN3-3" value="input username = username&lt;div&gt;input password = password&lt;/div&gt;" style="rhombus;whiteSpace=wrap;html=1;" vertex="1" parent="WIyWlLk6GJQsqaUBKTNV-1">
          <mxGeometry x="280" y="390" width="180" height="190" as="geometry" />
        </mxCell>
        <mxCell id="UqoAKlA2ank79z2y8RN3-5" value="End" style="ellipse;whiteSpace=wrap;html=1;" vertex="1" parent="WIyWlLk6GJQsqaUBKTNV-1">
          <mxGeometry x="310" y="630" width="120" height="80" as="geometry" />
        </mxCell>
        <mxCell id="UqoAKlA2ank79z2y8RN3-11" style="edgeStyle=orthogonalEdgeStyle;rounded=0;orthogonalLoop=1;jettySize=auto;html=1;" edge="1" parent="WIyWlLk6GJQsqaUBKTNV-1" source="UqoAKlA2ank79z2y8RN3-7" target="UqoAKlA2ank79z2y8RN3-9">
          <mxGeometry relative="1" as="geometry" />
        </mxCell>
        <mxCell id="UqoAKlA2ank79z2y8RN3-7" value="Pilihan menu:&lt;div style=&quot;text-align: left;&quot;&gt;1. Lihat Informasi Pengguna&lt;/div&gt;&lt;div style=&quot;text-align: left;&quot;&gt;2. Lihat Daftar Boneka&lt;/div&gt;&lt;div style=&quot;text-align: left;&quot;&gt;3. Tambah Daftar Boneka&lt;/div&gt;&lt;div style=&quot;text-align: left;&quot;&gt;4. Tambah Peminjaman Boneka&lt;/div&gt;&lt;div style=&quot;text-align: left;&quot;&gt;5. Histori Peminjaman Boneka&lt;/div&gt;&lt;div style=&quot;text-align: left;&quot;&gt;6. Keluar dari Program&lt;/div&gt;" style="shape=parallelogram;perimeter=parallelogramPerimeter;whiteSpace=wrap;html=1;fixedSize=1;" vertex="1" parent="WIyWlLk6GJQsqaUBKTNV-1">
          <mxGeometry x="610" y="422.5" width="290" height="125" as="geometry" />
        </mxCell>
        <mxCell id="UqoAKlA2ank79z2y8RN3-12" value="yes" style="edgeStyle=orthogonalEdgeStyle;rounded=0;orthogonalLoop=1;jettySize=auto;html=1;entryX=0;entryY=0.5;entryDx=0;entryDy=0;" edge="1" parent="WIyWlLk6GJQsqaUBKTNV-1" source="UqoAKlA2ank79z2y8RN3-9" target="UqoAKlA2ank79z2y8RN3-10">
          <mxGeometry relative="1" as="geometry" />
        </mxCell>
        <mxCell id="UqoAKlA2ank79z2y8RN3-14" value="no" style="edgeStyle=orthogonalEdgeStyle;rounded=0;orthogonalLoop=1;jettySize=auto;html=1;entryX=0.5;entryY=0;entryDx=0;entryDy=0;" edge="1" parent="WIyWlLk6GJQsqaUBKTNV-1" source="UqoAKlA2ank79z2y8RN3-9" target="UqoAKlA2ank79z2y8RN3-13">
          <mxGeometry relative="1" as="geometry">
            <Array as="points">
              <mxPoint x="630" y="640" />
            </Array>
          </mxGeometry>
        </mxCell>
        <mxCell id="UqoAKlA2ank79z2y8RN3-9" value="menu = 1" style="rhombus;whiteSpace=wrap;html=1;" vertex="1" parent="WIyWlLk6GJQsqaUBKTNV-1">
          <mxGeometry x="715" y="600" width="80" height="80" as="geometry" />
        </mxCell>
        <mxCell id="UqoAKlA2ank79z2y8RN3-10" value="Informasi Pengguna" style="shape=parallelogram;perimeter=parallelogramPerimeter;whiteSpace=wrap;html=1;fixedSize=1;" vertex="1" parent="WIyWlLk6GJQsqaUBKTNV-1">
          <mxGeometry x="850" y="605" width="150" height="70" as="geometry" />
        </mxCell>
        <mxCell id="UqoAKlA2ank79z2y8RN3-21" value="no" style="edgeStyle=orthogonalEdgeStyle;rounded=0;orthogonalLoop=1;jettySize=auto;html=1;entryX=0.5;entryY=0;entryDx=0;entryDy=0;" edge="1" parent="WIyWlLk6GJQsqaUBKTNV-1" source="UqoAKlA2ank79z2y8RN3-13" target="UqoAKlA2ank79z2y8RN3-17">
          <mxGeometry relative="1" as="geometry">
            <mxPoint x="540" y="770" as="targetPoint" />
            <Array as="points">
              <mxPoint x="540" y="730" />
            </Array>
          </mxGeometry>
        </mxCell>
        <mxCell id="UqoAKlA2ank79z2y8RN3-13" value="menu = 2" style="rhombus;whiteSpace=wrap;html=1;" vertex="1" parent="WIyWlLk6GJQsqaUBKTNV-1">
          <mxGeometry x="590" y="690" width="80" height="80" as="geometry" />
        </mxCell>
        <mxCell id="UqoAKlA2ank79z2y8RN3-15" value="Daftar Boneka" style="shape=parallelogram;perimeter=parallelogramPerimeter;whiteSpace=wrap;html=1;fixedSize=1;" vertex="1" parent="WIyWlLk6GJQsqaUBKTNV-1">
          <mxGeometry x="707" y="700" width="120" height="60" as="geometry" />
        </mxCell>
        <mxCell id="UqoAKlA2ank79z2y8RN3-26" value="no" style="edgeStyle=orthogonalEdgeStyle;rounded=0;orthogonalLoop=1;jettySize=auto;html=1;entryX=0.5;entryY=0;entryDx=0;entryDy=0;" edge="1" parent="WIyWlLk6GJQsqaUBKTNV-1" source="UqoAKlA2ank79z2y8RN3-17" target="UqoAKlA2ank79z2y8RN3-25">
          <mxGeometry relative="1" as="geometry">
            <Array as="points">
              <mxPoint x="470" y="820" />
            </Array>
          </mxGeometry>
        </mxCell>
        <mxCell id="UqoAKlA2ank79z2y8RN3-17" value="menu = 3" style="rhombus;whiteSpace=wrap;html=1;" vertex="1" parent="WIyWlLk6GJQsqaUBKTNV-1">
          <mxGeometry x="500" y="775" width="80" height="80" as="geometry" />
        </mxCell>
        <mxCell id="UqoAKlA2ank79z2y8RN3-18" value="yes" style="edgeStyle=orthogonalEdgeStyle;rounded=0;orthogonalLoop=1;jettySize=auto;html=1;" edge="1" parent="WIyWlLk6GJQsqaUBKTNV-1" source="UqoAKlA2ank79z2y8RN3-13" target="UqoAKlA2ank79z2y8RN3-15">
          <mxGeometry relative="1" as="geometry" />
        </mxCell>
        <mxCell id="UqoAKlA2ank79z2y8RN3-22" value="Tambah Daftar Boneka" style="shape=parallelogram;perimeter=parallelogramPerimeter;whiteSpace=wrap;html=1;fixedSize=1;" vertex="1" parent="WIyWlLk6GJQsqaUBKTNV-1">
          <mxGeometry x="640" y="780" width="155" height="70" as="geometry" />
        </mxCell>
        <mxCell id="UqoAKlA2ank79z2y8RN3-24" value="yes" style="edgeStyle=orthogonalEdgeStyle;rounded=0;orthogonalLoop=1;jettySize=auto;html=1;entryX=0.047;entryY=0.514;entryDx=0;entryDy=0;entryPerimeter=0;" edge="1" parent="WIyWlLk6GJQsqaUBKTNV-1" source="UqoAKlA2ank79z2y8RN3-17" target="UqoAKlA2ank79z2y8RN3-22">
          <mxGeometry relative="1" as="geometry" />
        </mxCell>
        <mxCell id="UqoAKlA2ank79z2y8RN3-31" value="no" style="edgeStyle=orthogonalEdgeStyle;rounded=0;orthogonalLoop=1;jettySize=auto;html=1;entryX=0.5;entryY=0;entryDx=0;entryDy=0;" edge="1" parent="WIyWlLk6GJQsqaUBKTNV-1" source="UqoAKlA2ank79z2y8RN3-25" target="UqoAKlA2ank79z2y8RN3-30">
          <mxGeometry relative="1" as="geometry">
            <Array as="points">
              <mxPoint x="400" y="910" />
            </Array>
          </mxGeometry>
        </mxCell>
        <mxCell id="UqoAKlA2ank79z2y8RN3-25" value="menu = 4" style="rhombus;whiteSpace=wrap;html=1;" vertex="1" parent="WIyWlLk6GJQsqaUBKTNV-1">
          <mxGeometry x="430" y="870" width="80" height="80" as="geometry" />
        </mxCell>
        <mxCell id="UqoAKlA2ank79z2y8RN3-27" value="Tambah Peminjaman Boneka" style="shape=parallelogram;perimeter=parallelogramPerimeter;whiteSpace=wrap;html=1;fixedSize=1;" vertex="1" parent="WIyWlLk6GJQsqaUBKTNV-1">
          <mxGeometry x="570" y="880" width="190" height="70" as="geometry" />
        </mxCell>
        <mxCell id="UqoAKlA2ank79z2y8RN3-28" value="yes" style="edgeStyle=orthogonalEdgeStyle;rounded=0;orthogonalLoop=1;jettySize=auto;html=1;entryX=0.053;entryY=0.429;entryDx=0;entryDy=0;entryPerimeter=0;" edge="1" parent="WIyWlLk6GJQsqaUBKTNV-1" source="UqoAKlA2ank79z2y8RN3-25" target="UqoAKlA2ank79z2y8RN3-27">
          <mxGeometry relative="1" as="geometry" />
        </mxCell>
        <mxCell id="UqoAKlA2ank79z2y8RN3-33" value="yes" style="edgeStyle=orthogonalEdgeStyle;rounded=0;orthogonalLoop=1;jettySize=auto;html=1;" edge="1" parent="WIyWlLk6GJQsqaUBKTNV-1" source="UqoAKlA2ank79z2y8RN3-30" target="UqoAKlA2ank79z2y8RN3-32">
          <mxGeometry relative="1" as="geometry" />
        </mxCell>
        <mxCell id="UqoAKlA2ank79z2y8RN3-35" value="no" style="edgeStyle=orthogonalEdgeStyle;rounded=0;orthogonalLoop=1;jettySize=auto;html=1;entryX=0.5;entryY=0;entryDx=0;entryDy=0;" edge="1" parent="WIyWlLk6GJQsqaUBKTNV-1" source="UqoAKlA2ank79z2y8RN3-30" target="UqoAKlA2ank79z2y8RN3-34">
          <mxGeometry relative="1" as="geometry">
            <Array as="points">
              <mxPoint x="340" y="1010" />
            </Array>
          </mxGeometry>
        </mxCell>
        <mxCell id="UqoAKlA2ank79z2y8RN3-30" value="menu = 5" style="rhombus;whiteSpace=wrap;html=1;" vertex="1" parent="WIyWlLk6GJQsqaUBKTNV-1">
          <mxGeometry x="360" y="970" width="80" height="80" as="geometry" />
        </mxCell>
        <mxCell id="UqoAKlA2ank79z2y8RN3-32" value="Histori Peminjaman Boneka" style="shape=parallelogram;perimeter=parallelogramPerimeter;whiteSpace=wrap;html=1;fixedSize=1;" vertex="1" parent="WIyWlLk6GJQsqaUBKTNV-1">
          <mxGeometry x="525" y="980" width="190" height="60" as="geometry" />
        </mxCell>
        <mxCell id="UqoAKlA2ank79z2y8RN3-37" value="yes" style="edgeStyle=orthogonalEdgeStyle;rounded=0;orthogonalLoop=1;jettySize=auto;html=1;entryX=1;entryY=0.5;entryDx=0;entryDy=0;" edge="1" parent="WIyWlLk6GJQsqaUBKTNV-1" source="UqoAKlA2ank79z2y8RN3-34" target="UqoAKlA2ank79z2y8RN3-36">
          <mxGeometry relative="1" as="geometry" />
        </mxCell>
        <mxCell id="UqoAKlA2ank79z2y8RN3-34" value="menu = 6" style="rhombus;whiteSpace=wrap;html=1;" vertex="1" parent="WIyWlLk6GJQsqaUBKTNV-1">
          <mxGeometry x="300" y="1060" width="80" height="80" as="geometry" />
        </mxCell>
        <mxCell id="UqoAKlA2ank79z2y8RN3-38" style="edgeStyle=orthogonalEdgeStyle;rounded=0;orthogonalLoop=1;jettySize=auto;html=1;entryX=0.5;entryY=1;entryDx=0;entryDy=0;" edge="1" parent="WIyWlLk6GJQsqaUBKTNV-1" source="UqoAKlA2ank79z2y8RN3-36" target="UqoAKlA2ank79z2y8RN3-5">
          <mxGeometry relative="1" as="geometry">
            <Array as="points">
              <mxPoint x="170" y="750" />
              <mxPoint x="370" y="750" />
            </Array>
          </mxGeometry>
        </mxCell>
        <mxCell id="UqoAKlA2ank79z2y8RN3-36" value="Keluar dari Program" style="shape=parallelogram;perimeter=parallelogramPerimeter;whiteSpace=wrap;html=1;fixedSize=1;" vertex="1" parent="WIyWlLk6GJQsqaUBKTNV-1">
          <mxGeometry x="90" y="1070" width="150" height="60" as="geometry" />
        </mxCell>
      </root>
    </mxGraphModel>
  </diagram>
</mxfile>
